squats_1_grf
version=1
nRows=30
nColumns=19
inDegrees=no
endheader
time	ground_force_right_vx	ground_force_right_vy	ground_force_right_vz	ground_force_right_px	ground_force_right_py	ground_force_right_pz	ground_force_right_mx	ground_force_right_my	ground_force_right_mz	ground_force_left_vx	ground_force_left_vy	ground_force_left_vz	ground_force_left_px	ground_force_left_py	ground_force_left_pz	ground_force_left_mx	ground_force_left_my	ground_force_left_mz
     45.88300000	     -0.23606333	    491.71540135	     28.77812090	     -3.51502192	      0.00730325	      2.27155289	     -0.02760545	      9.47072856	      0.04288110	     -3.40337460	    464.95455328	    -32.32145975	     -3.48500362	      0.00803802	      2.75007520	      0.02772375	     -8.34422808	      0.01448957
     45.88400000	     -0.23773317	    491.90324450	     28.65185454	     -3.51501776	      0.00730312	      2.27158321	     -0.02762155	      9.47625024	      0.04290610	     -3.36869281	    464.99577976	    -32.29799496	     -3.48496448	      0.00803810	      2.75004768	      0.02771328	     -8.34107804	      0.01448410
     45.88500000	     -0.23967576	    492.09847066	     28.52778953	     -3.51501405	      0.00730299	      2.27161364	     -0.02763939	      9.48237035	      0.04293381	     -3.33453428	    465.04598867	    -32.27047374	     -3.48492503	      0.00803818	      2.75001968	      0.02770341	     -8.33810651	      0.01447894
     45.88600000	     -0.24181167	    492.29922512	     28.40618246	     -3.51501083	      0.00730286	      2.27164415	     -0.02765893	      9.48907477	      0.04296417	     -3.30096080	    465.10521047	    -32.23896397	     -3.48488529	      0.00803826	      2.74999122	      0.02769411	     -8.33530756	      0.01447408
     45.88700000	     -0.24404733	    492.50362896	     28.28726832	     -3.51500816	      0.00730273	      2.27167468	     -0.02768012	      9.49634477	      0.04299709	     -3.26802881	    465.17337887	    -32.20357655	     -3.48484529	      0.00803835	      2.74996229	      0.02768536	     -8.33267358	      0.01446951
     45.88800000	     -0.24627377	    492.70979811	     28.17126079	     -3.51500607	      0.00730260	      2.27170519	     -0.02770289	      9.50415730	      0.04303246	     -3.23578768	    465.25033299	    -32.16446431	     -3.48480506	      0.00803843	      2.74993292	      0.02767712	     -8.33019535	      0.01446520
     45.88900000	     -0.24836568	    492.91586232	     28.05835291	     -3.51500461	      0.00730247	      2.27173564	     -0.02772717	      9.51248530	      0.04307017	     -3.20427822	    465.33582058	    -32.12182038	     -3.48476462	      0.00803851	      2.74990311	      0.02766937	     -8.32786204	      0.01446115
     45.89000000	     -0.25018071	    493.11998362	     27.94871800	     -3.51500383	      0.00730233	      2.27176598	     -0.02775285	      9.52129807	      0.04311007	     -3.17353150	    465.42950227	    -32.07587597	     -3.48472402	      0.00803860	      2.74987291	      0.02766206	     -8.32566133	      0.01445733
     45.89100000	     -0.25155916	    493.32037404	     27.84251089	     -3.51500378	      0.00730220	      2.27179616	     -0.02777986	      9.53056168	      0.04315201	     -3.14356798	    465.53095659	    -32.02689767	     -3.48468330	      0.00803868	      2.74984233	      0.02765514	     -8.32357948	      0.01445371
     45.89200000	     -0.25232388	    493.51531233	     27.73986942	     -3.51500448	      0.00730206	      2.27182615	     -0.02780806	      9.54023935	      0.04319583	     -3.11439687	    465.63968587	    -31.97518422	     -3.48464249	      0.00803876	      2.74981141	      0.02764857	     -8.32160146	      0.01445028
     45.89300000	     -0.25228060	    493.70315941	     27.64091598	     -3.51500600	      0.00730192	      2.27185590	     -0.02783737	      9.55029194	      0.04324134	     -3.08601581	    465.75512267	    -31.92106278	     -3.48460165	      0.00803884	      2.74978020	      0.02764229	     -8.31971110	      0.01444700
     45.89400000	     -0.25121849	    493.88237240	     27.54575931	     -3.51500837	      0.00730178	      2.27188536	     -0.02786764	      9.56067829	      0.04328837	     -3.05841073	    465.87663690	    -31.86488473	     -3.48456080	      0.00803892	      2.74974873	      0.02763624	     -8.31789124	      0.01444384
     45.89500000	     -0.24891113	    494.05151699	     27.45449626	     -3.51501163	      0.00730164	      2.27191449	     -0.02789876	      9.57135569	      0.04333672	     -3.03155598	    466.00354325	    -31.80702107	     -3.48452001	      0.00803900	      2.74971707	      0.02763037	     -8.31612387	      0.01444077
     45.89600000	     -0.24511777	    494.20927814	     27.36721360	     -3.51501582	      0.00730150	      2.27194325	     -0.02793061	      9.58228025	      0.04338618	     -3.00541455	    466.13510912	    -31.74785740	     -3.48447931	      0.00803908	      2.74968527	      0.02762461	     -8.31439031	      0.01443776
     45.89700000	     -0.23958496	    494.35446897	     27.28398980	     -3.51502098	      0.00730135	      2.27197159	     -0.02796304	      9.59340727	      0.04343656	     -2.97993853	    466.27056271	    -31.68778864	     -3.48443876	      0.00803916	      2.74965339	      0.02761890	     -8.31267136	      0.01443477
     45.89800000	     -0.23204845	    494.48603779	     27.20489679	     -3.51502715	      0.00730121	      2.27199947	     -0.02799593	      9.60469152	      0.04348765	     -2.95506958	    466.40910135	    -31.62721345	     -3.48439839	      0.00803924	      2.74962148	      0.02761317	     -8.31094747	      0.01443178
     45.89900000	     -0.22223537	    494.60307326	     27.13000154	     -3.51503437	      0.00730106	      2.27202685	     -0.02802915	      9.61608761	      0.04353925	     -2.93073963	    466.54989991	    -31.56652846	     -3.48435827	      0.00803932	      2.74958961	      0.02760736	     -8.30919889	      0.01442874
     45.90000000	     -0.20986674	    494.70480777	     27.05936754	     -3.51504267	      0.00730092	      2.27205369	     -0.02806256	      9.62755011	      0.04359115	     -2.90687153	    466.69211926	    -31.50612246	     -3.48431842	      0.00803940	      2.74955785	      0.02760140	     -8.30740584	      0.01442563
     45.90100000	     -0.19466015	    494.79061899	     26.99305606	     -3.51505208	      0.00730077	      2.27207995	     -0.02809603	      9.63903387	      0.04364315	     -2.88337984	    466.83491455	    -31.44637063	     -3.48427889	      0.00803947	      2.74952625	      0.02759523	     -8.30554868	      0.01442240
     45.90200000	     -0.17633268	    494.86002975	     26.93112721	     -3.51506264	      0.00730062	      2.27210558	     -0.02812944	      9.65049408	      0.04369504	     -2.86017172	    466.97744345	    -31.38762874	     -3.48423972	      0.00803955	      2.74949489	      0.02758879	     -8.30360807	      0.01441903
     45.90300000	     -0.15460411	    494.91270630	     26.87364069	     -3.51507437	      0.00730048	      2.27213056	     -0.02816264	      9.66188641	      0.04374662	     -2.83714785	    467.11887410	    -31.33022778	     -3.48420093	      0.00803962	      2.74946382	      0.02758200	     -8.30156511	      0.01441549
     45.90400000	     -0.12920020	    494.94845524	     26.82065627	     -3.51508729	      0.00730033	      2.27215484	     -0.02819553	      9.67316718	      0.04379769	     -2.81420344	    467.25839278	    -31.27446880	     -3.48416256	      0.00803970	      2.74943310	      0.02757481	     -8.29940153	      0.01441173
     45.90500000	     -0.09985628	    494.96721908	     26.77223399	     -3.51510143	      0.00730018	      2.27217840	     -0.02822796	      9.68429339	      0.04384807	     -2.79122931	    467.39521113	    -31.22061819	     -3.48412462	      0.00803977	      2.74940279	      0.02756716	     -8.29709985	      0.01440773
     45.90600000	     -0.06632096	    494.96907084	     26.72843401	     -3.51511678	      0.00730003	      2.27220119	     -0.02825981	      9.69522285	      0.04389756	     -2.76811309	    467.52857300	    -31.16890360	     -3.48408713	      0.00803984	      2.74937294	      0.02755900	     -8.29464355	      0.01440347
     45.90700000	     -0.02836008	    494.95420774	     26.68931614	     -3.51513337	      0.00729989	      2.27222321	     -0.02829098	      9.70591430	      0.04394596	     -2.74474048	    467.65776072	    -31.11951033	     -3.48405010	      0.00803992	      2.74934359	      0.02755027	     -8.29201722	      0.01439891
     45.90800000	      0.01423923	    494.92294421	     26.65493910	     -3.51515118	      0.00729974	      2.27224442	     -0.02832133	      9.71632757	      0.04399311	     -2.72099666	    467.78210089	    -31.07257854	     -3.48401352	      0.00803999	      2.74931479	      0.02754094	     -8.28920670	      0.01439403
     45.90900000	      0.06166433	    494.87570450	     26.62535939	     -3.51517022	      0.00729959	      2.27226480	     -0.02835076	      9.72642373	      0.04403883	     -2.69676778	    467.90096948	    -31.02820113	     -3.48397739	      0.00804006	      2.74928657	      0.02753094	     -8.28619928	      0.01438880
     45.91000000	      0.11407277	    494.81301495	     26.60062996	     -3.51519045	      0.00729944	      2.27228434	     -0.02837915	      9.73616527	      0.04408293	     -2.67194265	    468.01379631	    -30.98642246	     -3.48394169	      0.00804013	      2.74925896	      0.02752026	     -8.28298375	      0.01438322
     45.91100000	      0.17158800	    494.73549615	     26.58079857	     -3.51521186	      0.00729930	      2.27230304	     -0.02840641	      9.74551640	      0.04412527	     -2.64641444	    468.12006881	    -30.94723781	     -3.48390640	      0.00804020	      2.74923197	      0.02750885	     -8.27955063	      0.01437726
     45.91200000	      0.23429513	    494.64385525	     26.56590600	     -3.51523441	      0.00729915	      2.27232089	     -0.02843243	      9.75444327	      0.04416569	     -2.62008262	    468.21933504	    -30.91059373	     -3.48387148	      0.00804027	      2.74920562	      0.02749670	     -8.27589222	      0.01437091
